<svg width="60" height="60" viewBox="0 0 60 60" fill="none" xmlns="http://www.w3.org/2000/svg">
<g clip-path="url(#clip0_2531_2333)">
<path fill-rule="evenodd" clip-rule="evenodd" d="M39.375 45.8787H20.625V44.1208H39.375V45.8787ZM38.4375 49.3943H21.5625V47.6365H38.4375V49.3943ZM38.2031 52.9099H21.7969V51.1521H38.2031V52.9099ZM25.6055 55.5466V56.7185C25.6055 57.5276 26.2613 58.1833 27.0703 58.1833H32.9297C33.7387 58.1833 34.3945 57.5276 34.3945 56.7185V55.5466H36.1523V56.7185C36.1523 58.4984 34.7095 59.9412 32.9297 59.9412H27.0703C25.2905 59.9412 23.8477 58.4984 23.8477 56.7185V55.5466H25.6055Z" fill="#F52549"/>
<path fill-rule="evenodd" clip-rule="evenodd" d="M14.2269 6.26524C18.3596 2.41507 23.9056 0.0583496 30 0.0583496C36.0944 0.0583496 41.6404 2.41507 45.7731 6.26524L44.5748 7.55139C40.7546 3.99233 35.6324 1.81616 30 1.81616C24.3676 1.81616 19.2454 3.99233 15.4252 7.55139L14.2269 6.26524ZM6.85547 23.2029C6.85547 17.1084 9.21219 11.5625 13.0624 7.42982L14.3485 8.62804C10.7895 12.4482 8.61328 17.5705 8.61328 23.2029C8.61328 26.6841 9.4444 29.9686 10.9183 32.8712L9.35091 33.6671C7.75473 30.5235 6.85547 26.967 6.85547 23.2029ZM46.9376 7.42982C50.7878 11.5625 53.1445 17.1084 53.1445 23.2029C53.1445 26.967 52.2453 30.5235 50.6491 33.6671L49.0817 32.8712C50.5556 29.9686 51.3867 26.6841 51.3867 23.2029C51.3867 17.5705 49.2105 12.4483 45.6515 8.62804L46.9376 7.42982ZM17.1565 42.4591C14.1426 40.4451 11.6282 37.7425 9.83805 34.5756L11.3683 33.7106C13.0226 36.6372 15.3471 39.1358 18.1331 40.9976L17.6448 41.7284L18.1331 40.9976C19.4899 41.9043 20.5864 43.1068 21.3618 44.4874L19.8292 45.3482C19.1868 44.2046 18.2792 43.2094 17.1565 42.4591ZM50.162 34.5756C48.3718 37.7425 45.8574 40.4451 42.8435 42.4591C41.7208 43.2094 40.8132 44.2045 40.1708 45.3482L38.6382 44.4874C39.4136 43.1068 40.5101 41.9042 41.8669 40.9976C44.6529 39.1358 46.9774 36.6372 48.6317 33.7106L50.162 34.5756ZM39.9934 45.6811C39.4026 46.8519 39.082 48.1614 39.082 49.5126V51.2741H37.3242V49.5126C37.3242 47.8826 37.711 46.3023 38.4241 44.8892L39.9934 45.6811ZM20.918 49.5126C20.918 48.1614 20.5974 46.852 20.0066 45.6811L21.5759 44.8892C22.289 46.3023 22.6758 47.8826 22.6758 49.5126V51.2741H20.918V49.5126ZM20.918 53.2029V51.4414H22.6758V53.2029C22.6758 53.5891 22.8241 53.9387 23.0685 54.201L21.7823 55.3993C21.2468 54.8244 20.918 54.0511 20.918 53.2029ZM39.082 51.4414V53.2029C39.082 54.0511 38.7532 54.8244 38.2177 55.3993L36.9315 54.201C37.1759 53.9387 37.3242 53.5891 37.3242 53.2029V51.4414H39.082ZM24.1406 56.4255C23.2924 56.4255 22.5191 56.0967 21.9442 55.5612L23.1425 54.275C23.4048 54.5194 23.7544 54.6677 24.1406 54.6677H29.7345V56.4255H24.1406ZM38.0558 55.5612C37.4809 56.0967 36.7076 56.4255 35.8594 56.4255H30.2655V54.6677H35.8594C36.2456 54.6677 36.5952 54.5194 36.8575 54.275L38.0558 55.5612Z" fill="#F52549"/>
<path fill-rule="evenodd" clip-rule="evenodd" d="M53.5462 4.94396L50.135 7.80638L49.0051 6.45983L52.4163 3.59741L53.5462 4.94396ZM7.58367 3.59741L10.9949 6.45983L9.86496 7.80638L6.45375 4.94396L7.58367 3.59741ZM22.2693 10.8769C23.1356 9.12123 24.943 7.90983 27.0395 7.90983C28.1375 7.90983 29.1552 8.2449 30 8.8127C30.8448 8.24482 31.8625 7.90983 32.9605 7.90983C35.057 7.90983 36.8645 9.12119 37.7307 10.8769C39.6952 11.0436 41.2407 12.6874 41.2407 14.695C41.2407 14.7336 41.24 14.7718 41.2387 14.8097C43.3835 15.4919 44.9414 17.4913 44.9414 19.863C44.9414 21.397 44.2876 22.7735 43.2492 23.7396C43.8407 24.502 44.2012 25.4574 44.2012 26.5075C44.2012 27.978 43.5006 29.2686 42.4307 30.0981C42.6151 30.5853 42.7211 31.1153 42.7211 31.6755C42.7211 33.9286 41.0876 35.7751 38.9536 36.1569C37.9099 37.9713 35.9522 39.1989 33.7007 39.1989C32.3064 39.1989 31.0228 38.7272 30 37.938C28.9772 38.7272 27.6936 39.1989 26.2993 39.1989C24.0478 39.1989 22.0901 37.9713 21.0464 36.1569C18.9124 35.7751 17.2789 33.9286 17.2789 31.6755C17.2789 31.1153 17.385 30.5853 17.5694 30.0981C16.4995 29.2687 15.7987 27.978 15.7987 26.5075C15.7987 25.4574 16.1593 24.502 16.7508 23.7396C15.7125 22.7735 15.0586 21.397 15.0586 19.863C15.0586 17.4912 16.6165 15.4918 18.7613 14.8097C18.76 14.7718 18.7593 14.7336 18.7593 14.695C18.7593 12.6874 20.3047 11.0435 22.2693 10.8769ZM30.8789 36.3867C31.6351 37.0438 32.6205 37.4411 33.7007 37.4411C35.422 37.4411 36.9051 36.43 37.593 34.9679L37.8133 34.4996L38.3296 34.4651C39.806 34.3663 40.9632 33.1557 40.9632 31.6755C40.9632 31.1555 40.8111 30.6671 40.5492 30.234L40.0612 29.427L40.9006 28.997C41.8211 28.5255 42.4434 27.5887 42.4434 26.5075C42.4434 25.6313 42.0307 24.8511 41.3789 24.3281L40.4014 23.5437L41.4719 22.8919C42.501 22.2653 43.1836 21.1433 43.1836 19.863C43.1836 18.075 41.8538 16.5943 40.1204 16.3519L39.1265 16.2128L39.3954 15.2459C39.4527 15.04 39.4829 14.8631 39.4829 14.695C39.4829 13.5544 38.5578 12.6255 37.4102 12.6208C37.4066 12.6212 37.4001 12.6219 37.3898 12.6232C37.3822 12.6242 37.3743 12.6253 37.3636 12.6268C37.3536 12.6281 37.3408 12.6298 37.3276 12.6316C37.301 12.635 37.2658 12.6393 37.2262 12.6426L36.5466 12.6999L36.3224 12.0558C35.8383 10.6652 34.5167 9.66764 32.9605 9.66764C32.1831 9.66764 31.4658 9.91785 30.8789 10.3424V36.3867ZM29.1211 10.3425C28.5342 9.9179 27.8168 9.66764 27.0395 9.66764C25.4834 9.66764 24.1618 10.6652 23.6776 12.0558L23.4534 12.6999L22.7738 12.6426C22.7342 12.6393 22.699 12.635 22.6724 12.6316C22.6592 12.6298 22.6464 12.6281 22.6364 12.6268C22.6257 12.6253 22.6178 12.6242 22.6102 12.6232C22.5999 12.6219 22.5934 12.6212 22.5898 12.6208C21.4421 12.6255 20.5171 13.5544 20.5171 14.695C20.5171 14.8631 20.5473 15.04 20.6046 15.2459L20.8735 16.2129L19.8795 16.3519C18.1462 16.5942 16.8164 18.0749 16.8164 19.863C16.8164 21.1433 17.499 22.2653 18.5281 22.8919L19.5985 23.5436L18.6212 24.328C17.9693 24.8512 17.5566 25.6313 17.5566 26.5075C17.5566 27.5887 18.1789 28.5255 19.0994 28.997L19.9386 29.4269L19.4508 30.2339C19.189 30.6671 19.0368 31.1556 19.0368 31.6755C19.0368 33.1557 20.194 34.3663 21.6704 34.4651L22.1867 34.4996L22.407 34.9679C23.0949 36.43 24.578 37.4411 26.2993 37.4411C27.3795 37.4411 28.3649 37.0438 29.1211 36.3867V10.3425ZM2.10987 12.4679L6.2944 13.991L5.69318 15.6428L1.50865 14.1197L2.10987 12.4679ZM58.4914 14.1197L54.3068 15.6428L53.7056 13.991L57.8901 12.4679L58.4914 14.1197ZM4.45312 24.4333H0V22.6755H4.45312V24.4333ZM60 24.4333H55.5469V22.6755H60V24.4333ZM6.2944 33.1178L2.10987 34.6408L1.50865 32.989L5.69318 31.466L6.2944 33.1178ZM54.3068 31.466L58.4914 32.989L57.8901 34.6408L53.7056 33.1178L54.3068 31.466ZM10.9949 40.6489L7.58367 43.5113L6.45375 42.1648L9.86496 39.3023L10.9949 40.6489ZM50.135 39.3023L53.5462 42.1648L52.4163 43.5113L49.0051 40.6489L50.135 39.3023Z" fill="#F52549"/>
<path fill-rule="evenodd" clip-rule="evenodd" d="M19.8926 16.35C19.8931 16.3499 19.8936 16.3498 19.7578 15.4814C19.6221 14.6131 19.6225 14.613 19.623 14.6129L19.6241 14.6128L19.6263 14.6124L19.6315 14.6117C19.6352 14.6111 19.6395 14.6105 19.6444 14.6098C19.6542 14.6085 19.6663 14.6069 19.6807 14.6052C19.7094 14.6018 19.747 14.5979 19.7928 14.5943C19.8841 14.5872 20.0088 14.5815 20.1598 14.5842C20.4606 14.5895 20.874 14.6284 21.3407 14.7616C22.2929 15.0332 23.4288 15.6886 24.2592 17.1418L22.733 18.0139C22.1571 17.0061 21.4239 16.6133 20.8585 16.452C20.5665 16.3687 20.3089 16.3449 20.1286 16.3417C20.039 16.3401 19.9704 16.3436 19.9288 16.3469C19.908 16.3485 19.8942 16.35 19.888 16.3507C19.8849 16.3511 19.8838 16.3513 19.8847 16.3511L19.8876 16.3507L19.8902 16.3503L19.8918 16.3501L19.8926 16.35ZM40.377 14.6129C40.3775 14.613 40.3779 14.6131 40.2422 15.4814C40.1064 16.3498 40.1069 16.3499 40.1074 16.35L40.1082 16.3501L40.1098 16.3503L40.1125 16.3507L40.1153 16.3511C40.1162 16.3513 40.1151 16.3511 40.112 16.3507C40.1058 16.35 40.092 16.3485 40.0712 16.3469C40.0296 16.3436 39.961 16.3401 39.8714 16.3417C39.6911 16.3449 39.4335 16.3687 39.1415 16.452C38.5761 16.6133 37.8429 17.0061 37.267 18.0139L35.7408 17.1418C36.5712 15.6886 37.7071 15.0332 38.6593 14.7616C39.1261 14.6284 39.5394 14.5895 39.8402 14.5842C39.9912 14.5815 40.1159 14.5872 40.2072 14.5943C40.253 14.5979 40.2906 14.6018 40.3193 14.6052C40.3337 14.6069 40.3458 14.6085 40.3556 14.6098C40.3605 14.6105 40.3648 14.6111 40.3685 14.6117L40.3737 14.6124L40.3759 14.6128L40.377 14.6129ZM49.6289 20.8591V22.6169H47.8711V20.8591H49.6289ZM18.5654 24.3693C18.5658 24.369 18.5663 24.3687 18.071 23.6426C17.5758 22.9165 17.5762 22.9162 17.5767 22.9159L17.5777 22.9152L17.5799 22.9137L17.5852 22.9102C17.5891 22.9075 17.5938 22.9045 17.5992 22.9009C17.6101 22.8938 17.6239 22.885 17.6407 22.8745C17.6741 22.8538 17.7193 22.8267 17.7752 22.7956C17.8866 22.7336 18.0429 22.6542 18.2361 22.5757C18.6187 22.4201 19.1697 22.2582 19.8167 22.2582C20.4741 22.2581 21.2141 22.426 21.9459 22.9087C22.6717 23.3875 23.3439 24.1458 23.9238 25.2572L22.3653 26.0703C21.8905 25.1603 21.4011 24.6551 20.9779 24.376C20.5606 24.1007 20.1641 24.0159 19.8168 24.016C19.4591 24.016 19.1372 24.1069 18.8981 24.2041C18.7805 24.2519 18.6887 24.2989 18.6298 24.3317C18.6006 24.348 18.58 24.3604 18.569 24.3673C18.5635 24.3707 18.5604 24.3727 18.5599 24.373L18.56 24.3729C18.5602 24.3728 18.5606 24.3726 18.5611 24.3722L18.5632 24.3708L18.5646 24.3698L18.5654 24.3693ZM42.4233 22.9159C42.4238 22.9162 42.4242 22.9165 41.929 23.6426C41.4337 24.3687 41.4342 24.369 41.4346 24.3693L41.4354 24.3698L41.4368 24.3708L41.4389 24.3722C41.4399 24.3729 41.4403 24.3731 41.4401 24.373C41.4396 24.3727 41.4365 24.3707 41.431 24.3673C41.42 24.3604 41.3994 24.348 41.3702 24.3317C41.3113 24.2989 41.2195 24.2519 41.1019 24.2041C40.8628 24.1069 40.5409 24.016 40.1832 24.016C39.8359 24.0159 39.4394 24.1007 39.0221 24.376C38.5989 24.6551 38.1095 25.1603 37.6347 26.0703L36.0762 25.2572C36.6561 24.1458 37.3283 23.3875 38.0541 22.9087C38.7859 22.426 39.5259 22.2581 40.1833 22.2582C40.8303 22.2582 41.3813 22.4201 41.7639 22.5757C41.9571 22.6542 42.1134 22.7336 42.2248 22.7956C42.2807 22.8267 42.3259 22.8538 42.3593 22.8745C42.3761 22.885 42.3899 22.8938 42.4008 22.9009C42.4041 22.9031 42.4072 22.9051 42.41 22.907C42.4117 22.9081 42.4133 22.9092 42.4148 22.9102L42.4201 22.9137L42.4223 22.9152L42.4233 22.9159ZM49.6289 24.4919V26.2497H47.8711V24.4919H49.6289ZM21.5686 36.2199C21.5681 36.2199 21.5676 36.2198 21.6117 35.342C21.6559 34.4642 21.6554 34.4642 21.6549 34.4642L21.6541 34.4642L21.6526 34.4641L21.6505 34.464C21.6494 34.4639 21.6491 34.4639 21.6495 34.4639C21.6502 34.464 21.6538 34.4641 21.66 34.4642C21.6723 34.4643 21.6949 34.4644 21.726 34.4634C21.7887 34.4615 21.8838 34.4558 21.9992 34.4397C22.2354 34.4068 22.5265 34.3351 22.7958 34.1898C23.0565 34.0492 23.2936 33.8424 23.4583 33.5223C23.6246 33.1991 23.7514 32.6931 23.6758 31.8994L25.4257 31.7328C25.5259 32.7848 25.3733 33.6424 25.0214 34.3264C24.668 35.0134 24.1484 35.4575 23.6304 35.7369C23.121 36.0117 22.6114 36.1293 22.2415 36.1807C22.0539 36.2068 21.8947 36.217 21.7788 36.2204C21.7207 36.2222 21.6729 36.2223 21.6372 36.2218C21.6194 36.2216 21.6045 36.2212 21.5928 36.2208C21.587 36.2207 21.5819 36.2205 21.5777 36.2203L21.572 36.22L21.5696 36.2199L21.5686 36.2199ZM38.3451 34.4642C38.3446 34.4642 38.3441 34.4642 38.3883 35.342C38.4324 36.2198 38.4319 36.2199 38.4314 36.2199L38.4304 36.2199L38.428 36.22L38.4223 36.2203C38.4181 36.2205 38.413 36.2207 38.4072 36.2208C38.3955 36.2212 38.3806 36.2216 38.3628 36.2218C38.3271 36.2223 38.2793 36.2222 38.2212 36.2204C38.1053 36.217 37.9461 36.2068 37.7585 36.1807C37.3886 36.1293 36.879 36.0117 36.3696 35.7369C35.8517 35.4575 35.332 35.0134 34.9786 34.3264C34.6267 33.6424 34.4741 32.7848 34.5743 31.7328L36.3242 31.8994C36.2486 32.6931 36.3754 33.1991 36.5417 33.5223C36.7064 33.8425 36.9435 34.0492 37.2042 34.1898C37.4735 34.3351 37.7646 34.4068 38.0008 34.4397C38.1162 34.4558 38.2113 34.4615 38.274 34.4634C38.3051 34.4644 38.3277 34.4643 38.34 34.4642C38.3462 34.4641 38.3498 34.464 38.3505 34.4639C38.3509 34.4639 38.3506 34.4639 38.3495 34.464L38.3474 34.4641L38.3459 34.4642L38.3451 34.4642Z" fill="#F52549"/>
</g>
<defs>
<clipPath id="clip0_2531_2333">
<rect width="60" height="60" fill="white" transform="translate(0 -0.000244141)"/>
</clipPath>
</defs>
</svg>
