<svg width="60" height="60" viewBox="0 0 60 60" fill="none" xmlns="http://www.w3.org/2000/svg">
<g clip-path="url(#clip0_2531_2351)">
<path d="M15.3549 28.6688C15.3431 28.9234 15.2306 29.1629 15.0422 29.3346C14.8538 29.5063 14.605 29.5961 14.3504 29.5843C14.0958 29.5725 13.8563 29.46 13.6846 29.2716C13.5129 29.0833 13.4231 28.8344 13.4349 28.5798C13.4399 28.4531 13.4699 28.3287 13.5232 28.2137C13.5765 28.0987 13.652 27.9953 13.7454 27.9096C13.8388 27.8239 13.9482 27.7576 14.0674 27.7143C14.1866 27.6711 14.3131 27.6519 14.4397 27.6577C14.5663 27.6636 14.6906 27.6945 14.8052 27.7485C14.9199 27.8026 15.0227 27.8788 15.1077 27.9728C15.1928 28.0668 15.2584 28.1767 15.3008 28.2961C15.3433 28.4156 15.3616 28.5423 15.3549 28.6688ZM55.0552 43.5344C54.8014 44.1097 54.34 44.5513 53.7562 44.7775L50.8723 45.8956C50.6023 46.0006 50.3152 46.0545 50.0255 46.0545C49.0833 46.0545 48.1922 45.4838 47.8316 44.554L47.627 44.0263L45.4914 44.9174C45.5823 45.5792 45.464 46.2606 45.1365 46.8561C44.733 47.5898 44.0678 48.1237 43.2612 48.3622C43.4826 49.1355 43.4127 49.99 42.9987 50.7425C42.3798 51.868 41.1701 52.4667 39.9653 52.3654C39.9755 52.9099 39.8426 53.4474 39.5799 53.9244C39.1731 54.6641 38.5 55.2008 37.6845 55.4355C37.2358 55.5658 36.7636 55.5945 36.3024 55.5195C36.2927 56.0265 36.1598 56.5235 35.9151 56.9676C35.5081 57.7074 34.8063 58.2631 33.9895 58.4921C33.7122 58.5702 33.4256 58.61 33.1375 58.6104C32.603 58.6105 32.0778 58.4701 31.6147 58.2031L30.9179 57.8029C30.5117 58.3334 29.9507 58.7239 29.296 58.9223C28.9904 59.0153 28.6728 59.0628 28.3533 59.0631C27.8314 59.0631 27.315 58.935 26.8431 58.6827C26.1999 58.3395 25.6925 57.7878 25.4043 57.1182C24.5574 57.4393 23.5848 57.4033 22.7393 56.9511C22.165 56.6434 21.6978 56.1684 21.3997 55.589C20.4994 56.03 19.4095 56.0479 18.4627 55.5416C17.7063 55.1369 17.1518 54.4597 16.9018 53.6346C16.7756 53.2213 16.7337 52.7869 16.7786 52.3571C16.2754 52.3461 15.782 52.2167 15.3381 51.9794C14.5817 51.5748 14.0273 50.8975 13.7773 50.0723C13.5271 49.2471 13.6123 48.376 14.0168 47.6196L14.7652 46.2202C14.6025 45.8125 14.519 45.3753 14.4394 44.9475C14.3028 44.2134 14.1916 43.7238 13.9002 43.6107C13.7651 43.5582 13.4506 43.4276 12.332 42.9296L12.0716 43.5187C11.6838 44.3959 10.8213 44.9186 9.9188 44.9186C9.6018 44.9186 9.28012 44.8542 8.97215 44.7181L6.14301 43.4677C5.57032 43.2146 5.12981 42.7523 4.90294 42.1658C4.67606 41.5793 4.69048 40.9409 4.9436 40.3683L11.4391 25.6722C11.6922 25.0995 12.1545 24.6592 12.741 24.4322C13.3273 24.2052 13.9656 24.2196 14.5386 24.4728L17.3677 25.7232C18.5528 26.2469 19.0909 27.6374 18.5671 28.8226L18.1304 29.8107L19.8585 30.6079C19.8813 30.6185 19.9036 30.63 19.9256 30.6422C20.8945 31.1874 21.9299 30.9446 23.2408 30.6374C24.995 30.2261 27.1502 29.7215 29.6715 31.1745C33.1564 29.0527 35.8321 30.1435 37.81 30.952C39.2396 31.5363 40.0888 31.8457 40.9196 31.4136L42.4248 30.6078L42.0235 29.5725C41.5552 28.3642 42.1572 27.0002 43.365 26.5318L46.2491 25.4138C46.833 25.1874 47.4714 25.2028 48.0466 25.4565C48.6218 25.7104 49.0634 26.1717 49.2897 26.7554L55.0975 41.7365C55.3243 42.3207 55.3091 42.959 55.0552 43.5344ZM10.3571 42.7608L16.8524 28.0647C16.9207 27.91 16.8861 27.7711 16.8595 27.7018C16.8326 27.6327 16.7647 27.5065 16.6101 27.4381L13.7808 26.1877C13.7218 26.1615 13.6579 26.1479 13.5933 26.1479C13.5189 26.1479 13.4572 26.1656 13.418 26.1808C13.3489 26.2077 13.2227 26.2755 13.1543 26.4302L6.65899 41.1262C6.59055 41.2809 6.62524 41.42 6.65196 41.4892C6.67868 41.5583 6.74665 41.6845 6.90133 41.7528L9.73059 43.0032C9.9659 43.1074 10.2529 42.9962 10.3571 42.7608ZM17.6665 50.2131L19.5017 47.0373C19.7766 46.3977 19.5176 45.6479 18.9016 45.3191C18.2463 44.9693 17.4284 45.2167 17.0786 45.8709L15.6704 48.5039C15.5018 48.8188 15.4669 49.1826 15.5717 49.5286C15.6766 49.8745 15.9077 50.1577 16.2225 50.3261C16.6853 50.5735 17.2499 50.5248 17.6665 50.2131ZM21.1745 53.3266L23.2123 49.3802C23.3157 48.8114 23.0375 48.2195 22.5262 47.9465C22.0594 47.6973 21.4906 47.7481 21.0732 48.0655L18.7953 52.066C18.6268 52.381 18.5918 52.7448 18.6966 53.0907C18.8015 53.4367 19.0326 53.7199 19.3475 53.8883C20.0016 54.2382 20.821 53.9861 21.1745 53.3266ZM25.3216 54.9344L27.1238 51.4708C27.2265 50.9024 26.9482 50.3111 26.4373 50.0384C25.9284 49.7668 25.2869 49.8597 24.8718 50.253L22.9162 54.0403C22.8907 54.5579 23.1633 55.0515 23.6238 55.2978C24.2022 55.6071 24.9221 55.4493 25.3216 54.9344ZM29.5499 56.477L30.9 53.952C31.143 53.4978 31.1007 52.9333 30.7922 52.5138C30.675 52.3541 30.5232 52.223 30.3482 52.1301C29.8391 51.8581 29.1972 51.9516 28.782 52.3461L27.023 55.7267C26.9807 56.2552 27.2581 56.778 27.7277 57.0293C28.3824 57.3794 29.1998 57.1315 29.5499 56.477ZM33.7641 54.317C33.7177 54.2909 32.8925 53.8084 32.8925 53.8084C32.8389 54.1633 32.7272 54.5115 32.5534 54.8363L31.8401 56.1702L32.5486 56.5772C32.829 56.7381 33.1609 56.777 33.4836 56.6866C33.8188 56.5926 34.1063 56.3656 34.2722 56.064C34.6113 55.4477 34.3833 54.6641 33.7641 54.317ZM31.7581 48.0726C31.6502 48.0126 31.5553 47.9318 31.4787 47.8349C31.4021 47.7381 31.3454 47.627 31.3119 47.5082C31.2784 47.3894 31.2686 47.2651 31.2833 47.1425C31.2979 47.0199 31.3366 46.9014 31.3971 46.7938C31.4577 46.6862 31.5389 46.5916 31.6361 46.5155C31.7333 46.4393 31.8446 46.3832 31.9635 46.3502C32.0825 46.3171 32.2068 46.308 32.3294 46.3231C32.4519 46.3383 32.5702 46.3775 32.6775 46.4386L39.6177 50.3437C40.2361 50.6837 41.016 50.4572 41.356 49.8388C41.6929 49.2263 41.463 48.4443 40.8433 48.0955C39.2163 47.1842 37.3723 46.1515 35.5582 45.1129C35.3448 44.9882 35.1893 44.7843 35.1255 44.5454C35.0617 44.3066 35.0948 44.0523 35.2176 43.8377C35.3404 43.6232 35.543 43.4658 35.7813 43.3999C36.0195 43.334 36.2742 43.3649 36.4898 43.4858C38.2969 44.5204 40.1375 45.5512 41.7612 46.4607L41.7616 46.4609C42.0516 46.6231 42.3912 46.661 42.7179 46.5676C43.0526 46.4718 43.328 46.2534 43.4935 45.9526C43.6931 45.5898 43.7015 45.1636 43.5168 44.7829C43.3992 44.5406 43.2107 44.3397 42.9764 44.2067L35.3063 39.8349C34.0568 39.123 32.4565 39.7711 30.603 40.5213C27.7783 41.6647 24.2635 43.0876 21.2385 39.1951C21.0231 38.9181 20.941 38.5755 21.007 38.2306C21.0731 37.885 21.2771 37.5966 21.5812 37.4189C23.7352 36.1617 25.5532 34.7906 26.9854 33.3432C27.3 33.025 27.6272 32.7194 27.966 32.427C26.4208 31.8192 25.0758 32.1334 23.6689 32.4631C22.1766 32.8129 20.6341 33.1747 19.0409 32.2957L17.3725 31.526L13.0902 41.2147C14.0862 41.658 14.4548 41.8147 14.579 41.8629C15.6307 42.2711 15.9837 43.2113 16.1737 44.0578C17.1528 43.2238 18.5827 43.0236 19.7843 43.6649C20.6857 44.1459 21.2693 45.0033 21.4368 45.9466C22.1142 45.8492 22.805 45.9703 23.4088 46.2923C24.1379 46.6802 24.6894 47.3342 24.9486 48.1183C25.7439 47.8994 26.593 47.9946 27.3201 48.3842C28.0491 48.7721 28.6006 49.426 28.8598 50.21C29.6553 49.9911 30.5046 50.0864 31.2318 50.4763C31.5976 50.6708 31.9217 50.9349 32.1861 51.2539L36.2023 53.5274C36.4954 53.6904 36.8377 53.7281 37.1659 53.6335C37.4985 53.5378 37.7724 53.32 37.9372 53.0205C38.2742 52.408 38.0441 51.626 37.4246 51.2774M46.9492 42.2775L43.1081 32.3693L41.795 33.072C40.143 33.9311 38.5966 33.2992 37.1009 32.6878C35.1442 31.8879 33.1205 31.0605 30.2133 33.0548C29.5888 33.4815 28.9517 34.0218 28.3184 34.6618C26.9293 36.0656 25.2172 37.3956 23.2215 38.6218C25.236 40.6708 27.411 39.7905 29.8995 38.7831C32.0118 37.9278 34.1961 37.0436 36.2348 38.2057L43.9052 42.5775C44.2024 42.7466 44.4707 42.962 44.7 43.2157L46.9492 42.2775ZM53.3498 42.4147L47.542 27.4334C47.4809 27.2757 47.358 27.202 47.2901 27.1721C47.2286 27.145 47.1622 27.1309 47.095 27.1306C47.0377 27.1307 46.9808 27.1414 46.9274 27.1623L44.0433 28.2802C43.8032 28.3733 43.6791 28.6549 43.7722 28.8951L49.5801 43.8761C49.673 44.1161 49.9543 44.2402 50.1947 44.1473L53.0786 43.0292C53.2363 42.9681 53.31 42.8452 53.3399 42.7774C53.3697 42.7097 53.4108 42.5723 53.3498 42.4147ZM46.2011 28.6067C45.6702 28.6067 45.24 29.037 45.24 29.5678C45.24 29.8227 45.3413 30.0671 45.5215 30.2474C45.7018 30.4276 45.9462 30.5288 46.2011 30.5288C46.456 30.5288 46.7004 30.4276 46.8807 30.2474C47.0609 30.0671 47.1622 29.8227 47.1622 29.5678C47.1622 29.3129 47.0609 29.0684 46.8807 28.8882C46.7004 28.708 46.456 28.6067 46.2011 28.6067ZM47.393 22.5233C47.4069 22.6541 47.3932 22.7863 47.3527 22.9114C47.3123 23.0365 47.2459 23.1518 47.158 23.2496C47.0701 23.3474 46.9626 23.4256 46.8425 23.4792C46.7224 23.5328 46.5924 23.5606 46.4609 23.5606H37.4887C37.5056 23.6714 37.5204 23.7827 37.5325 23.8951C37.5464 24.0259 37.5327 24.1581 37.4922 24.2832C37.4517 24.4083 37.3854 24.5236 37.2975 24.6214C37.2096 24.7192 37.1021 24.7974 36.982 24.851C36.8619 24.9046 36.7319 24.9324 36.6004 24.9324H23.4C23.2685 24.9324 23.1385 24.9047 23.0184 24.8512C22.8982 24.7976 22.7907 24.7194 22.7028 24.6216C22.6149 24.5237 22.5486 24.4085 22.5081 24.2834C22.4676 24.1582 22.4539 24.026 22.4679 23.8952C22.48 23.7828 22.4949 23.6714 22.5116 23.5606H13.5395C13.408 23.5607 13.2779 23.533 13.1577 23.4795C13.0376 23.4259 12.9301 23.3477 12.8421 23.2498C12.7542 23.152 12.6879 23.0367 12.6474 22.9116C12.607 22.7864 12.5934 22.6541 12.6074 22.5233C12.857 20.1909 14.3068 18.2622 16.3054 17.3178C15.7036 16.65 15.3367 15.7666 15.3367 14.799C15.3367 12.7217 17.0267 11.0319 19.1038 11.0319C21.181 11.0319 22.8709 12.7218 22.8709 14.799C22.8709 15.7701 22.5015 16.6565 21.8958 17.3252C22.9259 17.8152 23.8216 18.5688 24.4784 19.5139C25.183 18.7654 26.0327 18.1683 26.9758 17.759C26.1924 16.9808 25.7064 15.9034 25.7064 14.7145C25.7064 12.3468 27.6326 10.4205 30.0003 10.4205C32.3679 10.4205 34.2943 12.3468 34.2943 14.7145C34.2943 15.9035 33.8083 16.9808 33.0248 17.7592C33.9678 18.1684 34.8175 18.7655 35.5222 19.514C36.1789 18.5689 37.0745 17.8153 38.1047 17.3253C37.4991 16.6567 37.1296 15.7702 37.1296 14.7991C37.1296 12.7218 38.8196 11.032 40.8967 11.032C42.9739 11.032 44.6638 12.722 44.6638 14.7991C44.6638 15.7667 44.2969 16.65 43.6952 17.3179C45.6936 18.2621 47.1435 20.1908 47.393 22.5233ZM40.8966 16.6912C41.9399 16.6912 42.7887 15.8424 42.7887 14.7991C42.7887 13.7558 41.9399 12.907 40.8966 12.907C39.8533 12.907 39.0045 13.7558 39.0045 14.7991C39.0045 15.8424 39.8533 16.6912 40.8966 16.6912ZM30.0002 17.1333C31.334 17.1333 32.4191 16.0482 32.4191 14.7144C32.4191 13.3806 31.334 12.2954 30.0002 12.2954C28.6665 12.2954 27.5813 13.3806 27.5813 14.7144C27.5814 16.0482 28.6666 17.1333 30.0002 17.1333ZM19.1038 16.6912C20.1472 16.6912 20.9959 15.8424 20.9959 14.7991C20.9959 13.7558 20.1472 12.907 19.1038 12.907C18.0605 12.907 17.2117 13.7558 17.2117 14.7991C17.2117 15.8424 18.0605 16.6912 19.1038 16.6912ZM23.0505 21.6855C23.1241 21.5143 23.2042 21.3458 23.2904 21.1806C22.516 19.6011 20.8844 18.5661 19.1038 18.5661C17.08 18.5661 15.3407 19.8506 14.7034 21.6855H23.0505ZM35.4595 23.0573C34.7495 20.689 32.5609 19.0083 30.0002 19.0083C27.4393 19.0083 25.2507 20.689 24.5409 23.0573H35.4595ZM45.297 21.6855C44.6597 19.8506 42.9204 18.5661 40.8966 18.5661C39.1161 18.5661 37.4846 19.6011 36.7101 21.1807C36.7963 21.3459 36.8763 21.5143 36.95 21.6855H45.297ZM52.8343 25.6459C52.8343 25.8945 52.933 26.133 53.1089 26.3088C53.2847 26.4846 53.5231 26.5834 53.7718 26.5834C54.0204 26.5834 54.2589 26.4846 54.4347 26.3088C54.6105 26.133 54.7093 25.8945 54.7093 25.6459C54.7093 21.2764 53.5525 16.9817 51.3641 13.226C51.238 13.0131 51.0328 12.8588 50.7933 12.7966C50.5538 12.7344 50.2994 12.7694 50.0857 12.8939C49.8719 13.0185 49.716 13.2225 49.652 13.4616C49.588 13.7006 49.6212 13.9552 49.7441 14.1699C51.7657 17.6394 52.8343 21.6077 52.8343 25.6459ZM6.22868 26.5834C6.47732 26.5834 6.71578 26.4846 6.89159 26.3088C7.06741 26.133 7.16618 25.8945 7.16618 25.6459C7.16618 20.6352 8.78981 15.9972 11.5368 12.2277L11.6041 14.1014C11.6085 14.2244 11.6371 14.3454 11.6883 14.4574C11.7394 14.5693 11.8121 14.6701 11.9023 14.754C11.9924 14.8379 12.0982 14.9032 12.2135 14.9462C12.3289 14.9892 12.4516 15.0091 12.5746 15.0047C12.6977 15.0002 12.8186 14.9716 12.9306 14.9205C13.0426 14.8693 13.1434 14.7966 13.2273 14.7065C13.3111 14.6163 13.3764 14.5106 13.4194 14.3952C13.4625 14.2799 13.4823 14.1571 13.4779 14.0341L13.3349 10.0538C17.5045 5.60013 23.4324 2.81177 30.0002 2.81177C34.8337 2.81177 39.547 4.35431 43.4331 7.18192L41.5445 7.24978C41.2961 7.2587 41.0613 7.36596 40.8919 7.54797C40.7225 7.72999 40.6323 7.97184 40.6413 8.22032C40.6502 8.46881 40.7574 8.70357 40.9395 8.87297C41.1215 9.04237 41.3633 9.13252 41.6118 9.1236L45.9944 8.96622C46.1365 8.96114 46.2757 8.92377 46.4013 8.85695C46.5268 8.79013 46.6356 8.6956 46.7192 8.58054C46.8028 8.46548 46.8592 8.33289 46.884 8.19282C46.9088 8.05275 46.9014 7.90887 46.8624 7.77208L45.6591 3.55485C45.5909 3.31574 45.4305 3.11352 45.2132 2.99268C44.9958 2.87184 44.7394 2.84228 44.5003 2.9105C44.2612 2.97872 44.059 3.13913 43.9381 3.35645C43.8173 3.57377 43.7877 3.83019 43.8559 4.06931L44.2541 5.46489C40.1037 2.53333 35.1142 0.936768 30.0002 0.936768C22.8559 0.936768 16.4113 3.98563 11.896 8.84927L7.90903 9.98681C7.66993 10.055 7.46773 10.2155 7.34691 10.4328C7.2261 10.6501 7.19656 10.9065 7.26479 11.1456C7.33303 11.3847 7.49345 11.5869 7.71077 11.7077C7.92809 11.8285 8.1845 11.8581 8.4236 11.7899L9.83044 11.3885C6.9727 15.4193 5.29118 20.3397 5.29118 25.6459C5.29118 25.8945 5.38995 26.133 5.56577 26.3088C5.74158 26.4846 5.98004 26.5834 6.22868 26.5834Z" fill="#F52549"/>
</g>
<defs>
<clipPath id="clip0_2531_2351">
<rect width="60" height="60" fill="white" transform="translate(0 -0.000244141)"/>
</clipPath>
</defs>
</svg>
